<svg width="0" height="0">
  <defs>
    <clipPath id="cog_2">
      <path
        stroke="null"
        d="m159.427229,-10.274884c3.683104,0.394496 6.54863,3.517302 6.538339,7.299887c0,0.176094 -0.144077,1.608857 -0.14522,1.621435c-1.072571,9.812082 5.3377,19.087879 15.189803,21.33822c9.853247,2.249198 19.722503,-3.308047 22.94479,-12.6353c0.177237,-0.513416 0.34304,-1.034837 0.576307,-1.523097c1.708338,-3.573331 5.934589,-5.126158 9.53765,-3.552749c11.218546,5.347991 21.545188,12.2591 30.70092,20.455464c2.75804,2.759184 2.700867,7.390221 0.027443,10.171131l-53.047678,53.021378c-2.619681,2.276641 -6.395406,2.362401 -9.091699,0.413935c-6.807053,-5.022103 -15.220677,-7.988254 -24.329527,-7.988254c-22.655493,0 -41.021845,18.366352 -41.021845,41.021845s18.366352,41.021845 41.021845,41.021845c9.194611,0 17.680272,-3.024468 24.519343,-8.131187c2.998168,-1.803246 6.525761,-1.717486 9.152302,0.780987l52.552557,52.551413c0.559155,0.558011 0.985668,1.077145 1.372159,1.78152c1.591705,2.887252 1.027976,6.381684 -1.15147,8.632025l-0.827869,0.732962c-8.919035,7.889916 -18.978106,14.524306 -29.847895,19.711068c-3.607635,1.598566 -7.861329,0.048026 -9.571954,-3.537884c-0.074325,-0.155511 -0.571733,-1.516236 -0.57402,-1.523097c-3.286321,-9.30667 -13.091543,-14.884498 -22.94479,-12.6353c-9.852104,2.249198 -16.257801,11.527281 -15.18866,21.33822c0.001143,0.018295 0.140646,1.441911 0.140646,1.622578c0.008004,3.784873 -2.854091,6.907679 -6.540626,7.299887c-0.364766,0.00343 -0.724957,0.013722 -1.090867,0.013722c-20.388,0 -39.673699,-4.71108 -56.837124,-13.096117c-3.44412,-1.846698 -4.848296,-6.100391 -3.126236,-9.648567c0.074325,-0.154368 0.832443,-1.395029 0.833587,-1.398459c5.245079,-8.371315 3.488715,-19.528113 -4.417209,-25.834329s-19.165635,-5.525228 -26.167077,1.441911c-0.011435,0.012578 -1.041698,1.016541 -1.178914,1.125171c-2.967294,2.380696 -7.227849,2.073104 -9.828091,-0.606037c-12.436337,-15.321302 -21.442276,-33.53786 -25.861772,-53.481051c-0.657493,-3.818033 1.788381,-7.522863 5.608701,-8.385037c0.16809,-0.036591 1.605426,-0.217259 1.613431,-0.217259c9.816656,-1.119453 17.448149,-9.443886 17.448149,-19.558987c0,-10.115101 -7.631493,-18.439534 -17.450436,-19.561274c-0.010291,0 -1.441911,-0.181811 -1.611144,-0.219545c-3.818033,-0.858743 -6.26162,-4.557856 -5.609845,-8.371315c4.421783,-19.946622 13.428865,-38.167754 25.865202,-53.491343c2.600242,-2.679141 6.863083,-2.990164 9.832665,-0.60718c0.134929,0.106342 1.172053,1.120597 1.176627,1.125171c6.993438,6.975143 18.261153,7.750413 26.167077,1.443054c7.908211,-6.303928 9.650854,-17.457296 4.413779,-25.834329c-0.009148,-0.013722 -0.751257,-1.23723 -0.8313,-1.397316c-1.720916,-3.549319 -0.317884,-7.801869 3.12738,-9.648567c18.112502,-8.850427 37.784693,-13.242481 57.932565,-13.081252l0,0z">
        </path>
    </clipPath>
  </defs>
</svg>